<svg width="32" height="32" viewBox="0 0 32 32" fill="none" xmlns="http://www.w3.org/2000/svg">
  <circle cx="16" cy="16" r="16" fill="#10465B" />
  <path
    d="M8.34596 27H8.67408V26.064H9.75953V27H10.0862V24.8862H9.75953V25.7798H8.67408V24.8862H8.34596V27ZM10.8647 27H11.1928V26.1343L11.9384 24.8862H11.5737L11.0419 25.8076H11.017L10.4853 24.8862H10.1205L10.8647 26.1343V27ZM11.9742 27H12.3023V26.2778H12.7975C13.212 26.2778 13.4991 25.9951 13.4991 25.582V25.5791C13.4991 25.1646 13.212 24.8862 12.7975 24.8862H11.9742V27ZM12.7154 25.1631C12.9996 25.1631 13.1651 25.3169 13.1651 25.5806V25.5835C13.1651 25.8486 12.9996 26.0024 12.7154 26.0024H12.3023V25.1631H12.7154ZM13.5891 27H14.9309V26.7173H13.9172V26.0596H14.8767V25.7871H13.9172V25.1689H14.9309V24.8862H13.5891V27ZM15.0722 27H15.4003V26.187H15.8632L16.2939 27H16.6733L16.1987 26.1357C16.4565 26.0493 16.6088 25.8179 16.6088 25.5337V25.5308C16.6088 25.1382 16.3393 24.8862 15.9057 24.8862H15.0722V27ZM15.4003 25.9204V25.1616H15.8632C16.1166 25.1616 16.2719 25.3052 16.2719 25.5396V25.5425C16.2719 25.7827 16.1254 25.9204 15.8735 25.9204H15.4003ZM16.7428 27H17.0621V25.4648H17.0855L18.171 27H18.4669V24.8862H18.1476V26.4243H18.1256L17.0387 24.8862H16.7428V27ZM18.5027 27H18.8469L19.0388 26.4287H19.8474L20.0379 27H20.3836L19.6204 24.8862H19.2659L18.5027 27ZM19.4299 25.2568H19.4548L19.7595 26.165H19.1267L19.4299 25.2568ZM20.7109 27H21.039V25.1689H21.7026V24.8862H20.0458V25.1689H20.7109V27ZM21.7721 27H22.1002V24.8862H21.7721V27ZM23.198 27.0513C23.8088 27.0513 24.1838 26.6206 24.1838 25.9438V25.9409C24.1838 25.2627 23.8059 24.835 23.198 24.835C22.5916 24.835 22.2107 25.2612 22.2107 25.9409V25.9438C22.2107 26.6221 22.5828 27.0513 23.198 27.0513ZM23.198 26.7612C22.7908 26.7612 22.5462 26.439 22.5462 25.9438V25.9409C22.5462 25.4414 22.7981 25.125 23.198 25.125C23.5979 25.125 23.8484 25.4414 23.8484 25.9409V25.9438C23.8484 26.439 23.5994 26.7612 23.198 26.7612ZM24.2958 27H24.6152V25.4648H24.6386L25.7241 27H26.02V24.8862H25.7006V26.4243H25.6786L24.5917 24.8862H24.2958V27Z"
    fill="white" />
  <path fill-rule="evenodd" clip-rule="evenodd"
    d="M13.8763 6.85828L14.4607 6.57345L14.0641 5.94531L13.4572 6.23914L13.8763 6.85828ZM17.3268 11.0745L14.9655 7.38433L14.4067 7.65413L13.872 6.86272L13.2201 7.17898L16.8851 12.8747H18.1604L19.3245 9.23094L18.8378 8.97913L19.0487 8.42399L19.5003 8.65893L19.6881 8.06677L19.2525 7.8404L19.043 8.41817L18.5194 8.15175L17.3268 11.0745ZM18.777 14.4621L20.88 15.6612L21.0602 15.1111L21.661 15.4319L21.4658 16.0015L22.0666 16.3432L22.3415 15.5428L21.7407 15.2191L21.8698 14.8458L19.9592 13.8206L21.993 12.1524L21.3606 11.2935L18.6734 13.263L18.777 14.4621ZM20.6595 19.7937L20.1082 20.161L18.0594 17.0958L16.2329 22.5666L15.973 23.3625L15.2685 23.2501L14.5175 23.1137L15.1364 21.408L15.2415 21.1277L15.5494 20.2988L17.3639 15.4185H18.4154L20.5874 18.7026L20.1293 19.0098L20.6595 19.7937ZM13.6149 15.1208L14.1211 15.7608L14.1166 15.7623L13.2649 16.4068L13.7666 17.0423L16.5049 14.9514L16.3381 13.6728L11.0809 10.801L10.7312 11.3671L10.7294 11.3661L10.729 11.3666L9.8882 10.9269L10.2412 10.3424L9.35046 9.86272L8.91936 10.5852L9.55474 10.9209L9.10412 11.6554L9.41805 11.8053L10.2217 12.192L10.729 11.3666L10.7309 11.3676L10.7312 11.3671L11.4879 11.7648L10.9937 12.5652L14.6828 14.3428L13.6149 15.1208ZM12.7422 15.76L10.8091 17.1825L11.3573 17.8735L10.2338 18.7233L9.67349 18.0158L8.80078 18.6559L9.37157 19.3768L10.2338 18.7233L10.734 19.3588L13.0697 17.5737L12.5785 16.9247L13.265 16.4046L12.7422 15.76ZM10.074 15.365C9.97838 15.4288 9.86597 15.4628 9.75098 15.4628C9.59678 15.4628 9.4489 15.4017 9.33986 15.2929C9.23083 15.1841 9.16957 15.0365 9.16957 14.8826C9.16957 14.7679 9.20367 14.6557 9.26756 14.5603C9.33144 14.4649 9.42225 14.3905 9.52848 14.3466C9.63472 14.3027 9.75162 14.2912 9.8644 14.3136C9.97719 14.336 10.0808 14.3912 10.1621 14.4724C10.2434 14.5535 10.2988 14.6569 10.3212 14.7694C10.3436 14.882 10.3321 14.9986 10.2881 15.1046C10.2441 15.2106 10.1696 15.3013 10.074 15.365ZM18.3615 20.8429C18.4447 20.8432 18.5262 20.8188 18.5956 20.7728C18.665 20.7269 18.7191 20.6615 18.7512 20.5848C18.7832 20.5081 18.7918 20.4237 18.7757 20.3421C18.7597 20.2606 18.7197 20.1857 18.6609 20.1268C18.6022 20.068 18.5272 20.0278 18.4456 20.0115C18.364 19.9952 18.2793 20.0034 18.2023 20.0352C18.1254 20.0669 18.0596 20.1207 18.0133 20.1897C17.967 20.2588 17.9423 20.34 17.9423 20.4231C17.9421 20.4782 17.9528 20.5327 17.9738 20.5836C17.9948 20.6345 18.0256 20.6808 18.0646 20.7198C18.1035 20.7588 18.1498 20.7898 18.2007 20.8109C18.2517 20.832 18.3063 20.8429 18.3615 20.8429ZM22.075 13.9487C22.0196 13.9856 21.9546 14.0053 21.888 14.0053C21.7987 14.0053 21.7132 13.9699 21.65 13.907C21.5869 13.844 21.5515 13.7586 21.5515 13.6695C21.5515 13.6031 21.5712 13.5382 21.6082 13.4829C21.6452 13.4277 21.6977 13.3847 21.7592 13.3593C21.8207 13.3339 21.8884 13.3272 21.9537 13.3402C22.0189 13.3531 22.0789 13.3851 22.126 13.4321C22.173 13.479 22.2051 13.5389 22.2181 13.604C22.231 13.6691 22.2244 13.7367 22.1989 13.798C22.1734 13.8594 22.1303 13.9118 22.075 13.9487ZM17.0038 8.42064C17.1025 8.42094 17.1991 8.392 17.2813 8.33749C17.3635 8.28299 17.4277 8.20536 17.4656 8.11444C17.5036 8.02352 17.5137 7.9234 17.4946 7.82675C17.4756 7.73011 17.4282 7.64129 17.3585 7.57153C17.2888 7.50177 17.1999 7.45422 17.1031 7.4349C17.0063 7.41557 16.906 7.42534 16.8147 7.46297C16.7235 7.50059 16.6455 7.56438 16.5906 7.64626C16.5358 7.72814 16.5065 7.82443 16.5065 7.92293C16.5065 8.05467 16.5588 8.18104 16.652 8.27434C16.7453 8.36763 16.8717 8.42024 17.0038 8.42064ZM20.1055 20.1618L19.7074 20.4302L20.0679 20.9759L20.4676 20.712L20.1055 20.1618ZM23.0264 15.4578L22.4736 15.1595L22.6478 14.6663L23.1977 14.9616L23.0264 15.4578Z"
    fill="white" />
</svg>
