<svg width="26" height="28" viewBox="0 0 26 28" fill="none" xmlns="http://www.w3.org/2000/svg">
<path d="M11.75 15.2188C11.75 14.5457 12.2957 14 12.9688 14H13.0312C13.7043 14 14.25 14.5457 14.25 15.2188C14.25 15.8918 13.7043 16.4375 13.0312 16.4375H12.9688C12.2957 16.4375 11.75 15.8918 11.75 15.2188Z" fill="#E4E4E4"/>
<path d="M12.9688 20.25C12.2957 20.25 11.75 20.7957 11.75 21.4688C11.75 22.1418 12.2957 22.6875 12.9688 22.6875H13.0312C13.7043 22.6875 14.25 22.1418 14.25 21.4688C14.25 20.7957 13.7043 20.25 13.0312 20.25H12.9688Z" fill="#E4E4E4"/>
<path d="M18 15.2188C18 14.5457 18.5457 14 19.2188 14H19.2812C19.9543 14 20.5 14.5457 20.5 15.2188C20.5 15.8918 19.9543 16.4375 19.2812 16.4375H19.2188C18.5457 16.4375 18 15.8918 18 15.2188Z" fill="#E4E4E4"/>
<path d="M19.2188 20.25C18.5457 20.25 18 20.7957 18 21.4688C18 22.1418 18.5457 22.6875 19.2188 22.6875H19.2812C19.9543 22.6875 20.5 22.1418 20.5 21.4688C20.5 20.7957 19.9543 20.25 19.2812 20.25H19.2188Z" fill="#E4E4E4"/>
<path d="M5.5 15.2188C5.5 14.5457 6.04565 14 6.71875 14H6.78125C7.45435 14 8 14.5457 8 15.2188C8 15.8918 7.45435 16.4375 6.78125 16.4375H6.71875C6.04565 16.4375 5.5 15.8918 5.5 15.2188Z" fill="#E4E4E4"/>
<path d="M6.71875 20.25C6.04565 20.25 5.5 20.7957 5.5 21.4688C5.5 22.1418 6.04565 22.6875 6.71875 22.6875H6.78125C7.45435 22.6875 8 22.1418 8 21.4688C8 20.7957 7.45435 20.25 6.78125 20.25H6.71875Z" fill="#E4E4E4"/>
<path fill-rule="evenodd" clip-rule="evenodd" d="M6.75 0.5625C7.26777 0.5625 7.6875 0.982233 7.6875 1.5V3.0625H18.3125V1.5C18.3125 0.982233 18.7322 0.5625 19.25 0.5625C19.7678 0.5625 20.1875 0.982233 20.1875 1.5V3.07495C20.3848 3.08054 20.5688 3.08863 20.7407 3.10036C21.3113 3.13929 21.816 3.22139 22.2938 3.41931C23.4424 3.89507 24.3549 4.8076 24.8307 5.95617C25.0286 6.43401 25.1107 6.93865 25.1496 7.50935C25.1875 8.06436 25.1875 8.7463 25.1875 9.5917V20.9083C25.1875 21.7537 25.1875 22.4356 25.1496 22.9907C25.1107 23.5613 25.0286 24.066 24.8307 24.5438C24.3549 25.6924 23.4424 26.6049 22.2938 27.0807C21.816 27.2786 21.3113 27.3607 20.7407 27.3996C20.1856 27.4375 19.5037 27.4375 18.6583 27.4375H7.3417C6.4963 27.4375 5.81436 27.4375 5.25935 27.3996C4.68865 27.3607 4.18402 27.2786 3.70617 27.0807C2.5576 26.6049 1.64507 25.6924 1.16932 24.5438C0.971386 24.066 0.889295 23.5613 0.850356 22.9907C0.812488 22.4356 0.812494 21.7537 0.8125 20.9083V9.59171C0.812494 8.74631 0.812488 8.06436 0.850356 7.50935C0.889295 6.93865 0.971386 6.43401 1.16932 5.95617C1.64507 4.8076 2.5576 3.89507 3.70617 3.41931C4.18402 3.22139 4.68865 3.13929 5.25935 3.10036C5.4312 3.08863 5.61522 3.08054 5.8125 3.07495V1.5C5.8125 0.982233 6.23223 0.5625 6.75 0.5625ZM18.3125 4.9375V6.5C18.3125 7.01777 18.7322 7.4375 19.25 7.4375C19.7678 7.4375 20.1875 7.01777 20.1875 6.5V4.9507C20.341 4.95551 20.4819 4.96206 20.613 4.97101C21.0882 5.00343 21.365 5.06407 21.5763 5.15159C22.2654 5.43704 22.813 5.98456 23.0984 6.6737C23.1859 6.885 23.2466 7.16175 23.279 7.63698C23.312 8.12063 23.3125 8.73853 23.3125 9.625V10.5625H2.6875V9.625C2.6875 8.73853 2.68801 8.12063 2.72101 7.63698C2.75343 7.16175 2.81407 6.885 2.90159 6.6737C3.18704 5.98456 3.73456 5.43704 4.4237 5.15159C4.635 5.06407 4.91175 5.00343 5.38698 4.97101C5.51807 4.96206 5.65902 4.95551 5.8125 4.9507V6.5C5.8125 7.01777 6.23223 7.4375 6.75 7.4375C7.26777 7.4375 7.6875 7.01777 7.6875 6.5V4.9375H18.3125ZM2.6875 12.4375H23.3125V20.875C23.3125 21.7615 23.312 22.3794 23.279 22.863C23.2466 23.3382 23.1859 23.615 23.0984 23.8263C22.813 24.5154 22.2654 25.063 21.5763 25.3484C21.365 25.4359 21.0882 25.4966 20.613 25.529C20.1294 25.562 19.5115 25.5625 18.625 25.5625H7.375C6.48853 25.5625 5.87063 25.562 5.38698 25.529C4.91175 25.4966 4.635 25.4359 4.4237 25.3484C3.73456 25.063 3.18704 24.5154 2.90159 23.8263C2.81407 23.615 2.75343 23.3382 2.72101 22.863C2.68801 22.3794 2.6875 21.7615 2.6875 20.875V12.4375Z" fill="#E4E4E4"/>
</svg>
