<svg width="25" height="26" viewBox="0 0 25 26" fill="none" xmlns="http://www.w3.org/2000/svg">
<path d="M23 24H3.86667C3.21327 24 2.88657 24 2.63701 23.8668C2.41749 23.7496 2.23901 23.5626 2.12716 23.3327C2 23.0712 2 22.729 2 22.0444V2M21.8333 8.11111L17.2613 13.2232C17.088 13.417 17.0014 13.5139 16.8969 13.5639C16.8046 13.6081 16.703 13.6263 16.602 13.6168C16.4875 13.606 16.375 13.5448 16.1501 13.4225L12.3499 11.3553C12.125 11.2329 12.0125 11.1718 11.898 11.161C11.797 11.1514 11.6954 11.1697 11.6031 11.2138C11.4986 11.2639 11.412 11.3608 11.2387 11.5545L6.66667 16.6667" stroke="#E4E4E4" stroke-width="2.2" stroke-linecap="round" stroke-linejoin="round"/>
</svg>
