<svg width="22" height="28" viewBox="0 0 22 28" fill="none" xmlns="http://www.w3.org/2000/svg">
<path d="M5.0625 9.00001C5.0625 8.48224 5.48223 8.06251 6 8.06251H11C11.5178 8.06251 11.9375 8.48224 11.9375 9.00001C11.9375 9.51777 11.5178 9.93751 11 9.93751H6C5.48223 9.93751 5.0625 9.51777 5.0625 9.00001Z" fill="#E4E4E4"/>
<path d="M6 13.0625C5.48223 13.0625 5.0625 13.4822 5.0625 14C5.0625 14.5178 5.48223 14.9375 6 14.9375H16C16.5178 14.9375 16.9375 14.5178 16.9375 14C16.9375 13.4822 16.5178 13.0625 16 13.0625H6Z" fill="#E4E4E4"/>
<path d="M5.0625 19C5.0625 18.4822 5.48223 18.0625 6 18.0625H16C16.5178 18.0625 16.9375 18.4822 16.9375 19C16.9375 19.5178 16.5178 19.9375 16 19.9375H6C5.48223 19.9375 5.0625 19.5178 5.0625 19Z" fill="#E4E4E4"/>
<path fill-rule="evenodd" clip-rule="evenodd" d="M12.5091 0.562483C13.1876 0.562319 13.6569 0.562206 14.1112 0.652566C14.7149 0.772658 15.2891 1.01049 15.8009 1.35248C16.186 1.60981 16.5178 1.94176 16.9975 2.42166L20.0783 5.50249C20.5582 5.98215 20.8902 6.31395 21.1475 6.69906C21.4895 7.21089 21.7273 7.78507 21.8474 8.38881C21.9378 8.84309 21.9377 9.31244 21.9375 9.99097L21.9375 20.9083C21.9375 21.7537 21.9375 22.4356 21.8996 22.9906C21.8607 23.5613 21.7786 24.066 21.5807 24.5438C21.1049 25.6924 20.1924 26.6049 19.0438 27.0807C18.566 27.2786 18.0613 27.3607 17.4907 27.3996C16.9356 27.4375 16.2537 27.4375 15.4083 27.4375H6.5917C5.7463 27.4375 5.06436 27.4375 4.50935 27.3996C3.93865 27.3607 3.43402 27.2786 2.95617 27.0807C1.8076 26.6049 0.895068 25.6924 0.419315 24.5438C0.221386 24.066 0.139295 23.5613 0.100356 22.9906C0.0624885 22.4356 0.0624937 21.7537 0.0625002 20.9083V7.0917C0.0624937 6.2463 0.0624885 5.56436 0.100356 5.00935C0.139295 4.43865 0.221386 3.93401 0.419315 3.45617C0.895068 2.3076 1.8076 1.39507 2.95617 0.919312C3.43402 0.721383 3.93865 0.639292 4.50935 0.600353C5.06436 0.562486 5.74631 0.562491 6.59171 0.562497L12.5091 0.562483ZM13.7454 2.49154C13.4948 2.44169 13.2211 2.4375 12.42 2.4375H6.625C5.73853 2.4375 5.12063 2.438 4.63698 2.471C4.16175 2.50343 3.885 2.56406 3.6737 2.65159C2.98456 2.93704 2.43704 3.48456 2.15159 4.1737C2.06407 4.385 2.00343 4.66175 1.97101 5.13698C1.93801 5.62063 1.9375 6.23853 1.9375 7.125V20.875C1.9375 21.7615 1.93801 22.3794 1.97101 22.863C2.00343 23.3382 2.06407 23.615 2.15159 23.8263C2.43704 24.5154 2.98456 25.063 3.6737 25.3484C3.885 25.4359 4.16175 25.4966 4.63698 25.529C5.12063 25.562 5.73853 25.5625 6.625 25.5625H15.375C16.2615 25.5625 16.8794 25.562 17.363 25.529C17.8382 25.4966 18.115 25.4359 18.3263 25.3484C19.0154 25.063 19.563 24.5154 19.8484 23.8263C19.9359 23.615 19.9966 23.3382 20.029 22.863C20.062 22.3794 20.0625 21.7615 20.0625 20.875V10.0799C20.0625 9.27895 20.0583 9.00523 20.0085 8.75461C20.004 8.73217 19.9993 8.7098 19.9943 8.68751H14.75C14.2322 8.68751 13.8125 8.26777 13.8125 7.75001V2.50574C13.7902 2.50074 13.7678 2.496 13.7454 2.49154ZM15.6875 3.76334V6.81251H18.7367C18.7213 6.79709 18.7056 6.78138 18.6896 6.76539L15.7346 3.81043C15.7186 3.79444 15.7029 3.77874 15.6875 3.76334Z" fill="#E4E4E4"/>
</svg>
