<svg width="29" height="26" viewBox="0 0 29 26" fill="none" xmlns="http://www.w3.org/2000/svg">
<rect x="1" y="1" width="27" height="24" rx="4" stroke="#E4E4E4" stroke-width="2"/>
<path d="M21.3235 23.3103V21.5172C21.3235 20.5661 20.9641 19.6539 20.3242 18.9814C19.6844 18.3089 18.8166 17.931 17.9118 17.931H11.0882C10.1834 17.931 9.31558 18.3089 8.67575 18.9814C8.03592 19.6539 7.67647 20.5661 7.67647 21.5172V23.3103" stroke="#E4E4E4" stroke-width="2" stroke-linecap="round" stroke-linejoin="round"/>
<path d="M14.5 14.3448C16.3843 14.3448 17.9118 12.7392 17.9118 10.7586C17.9118 8.778 16.3843 7.1724 14.5 7.1724C12.6157 7.1724 11.0882 8.778 11.0882 10.7586C11.0882 12.7392 12.6157 14.3448 14.5 14.3448Z" stroke="#E4E4E4" stroke-width="2" stroke-linecap="round" stroke-linejoin="round"/>
</svg>
